<mxfile host="app.diagrams.net" modified="2023-01-13T23:05:21.133Z" agent="5.0 (Macintosh; Intel Mac OS X 10_15_7) AppleWebKit/605.1.15 (KHTML, like Gecko) Version/16.1 Safari/605.1.15" etag="ppmhUVHIFr-VkJH0a8pK" version="20.8.5" type="github">
  <diagram id="Iy5sryAuXxn3RWMZBRz0" name="Page-1">
    <mxGraphModel dx="1194" dy="797" grid="1" gridSize="10" guides="1" tooltips="1" connect="1" arrows="1" fold="1" page="1" pageScale="1" pageWidth="827" pageHeight="1169" math="0" shadow="0">
      <root>
        <mxCell id="0" />
        <mxCell id="1" parent="0" />
        <mxCell id="wNl4BhHVMznYK_FbZay_-38" style="edgeStyle=orthogonalEdgeStyle;rounded=0;orthogonalLoop=1;jettySize=auto;html=1;exitX=1;exitY=0.5;exitDx=0;exitDy=0;entryX=0;entryY=0.5;entryDx=0;entryDy=0;" parent="1" source="wNl4BhHVMznYK_FbZay_-26" target="wNl4BhHVMznYK_FbZay_-30" edge="1">
          <mxGeometry relative="1" as="geometry" />
        </mxCell>
        <mxCell id="wNl4BhHVMznYK_FbZay_-40" style="edgeStyle=orthogonalEdgeStyle;rounded=0;orthogonalLoop=1;jettySize=auto;html=1;exitX=1;exitY=0.75;exitDx=0;exitDy=0;entryX=0;entryY=0.5;entryDx=0;entryDy=0;" parent="1" source="wNl4BhHVMznYK_FbZay_-26" target="wNl4BhHVMznYK_FbZay_-31" edge="1">
          <mxGeometry relative="1" as="geometry" />
        </mxCell>
        <mxCell id="wNl4BhHVMznYK_FbZay_-26" value="&lt;b&gt;IO&lt;/b&gt;" style="rounded=1;whiteSpace=wrap;html=1;fillColor=#f5f5f5;fontColor=#333333;strokeColor=#666666;" parent="1" vertex="1">
          <mxGeometry x="160" y="80" width="120" height="60" as="geometry" />
        </mxCell>
        <mxCell id="wNl4BhHVMznYK_FbZay_-41" style="edgeStyle=orthogonalEdgeStyle;rounded=0;orthogonalLoop=1;jettySize=auto;html=1;exitX=1;exitY=0.5;exitDx=0;exitDy=0;startArrow=none;" parent="1" source="wNl4BhHVMznYK_FbZay_-43" edge="1">
          <mxGeometry relative="1" as="geometry">
            <mxPoint x="320" y="190" as="targetPoint" />
            <Array as="points">
              <mxPoint x="300" y="190" />
            </Array>
          </mxGeometry>
        </mxCell>
        <mxCell id="vTrtFj_iLIDVPObdmPtd-1" style="edgeStyle=orthogonalEdgeStyle;rounded=0;orthogonalLoop=1;jettySize=auto;html=1;exitX=1;exitY=0.5;exitDx=0;exitDy=0;entryX=0.5;entryY=1;entryDx=0;entryDy=0;endArrow=none;endFill=0;" edge="1" parent="1" source="wNl4BhHVMznYK_FbZay_-27" target="wNl4BhHVMznYK_FbZay_-43">
          <mxGeometry relative="1" as="geometry" />
        </mxCell>
        <mxCell id="wNl4BhHVMznYK_FbZay_-27" value="&lt;b&gt;model&lt;/b&gt;" style="rounded=1;whiteSpace=wrap;html=1;fillColor=#f5f5f5;fontColor=#333333;strokeColor=#666666;" parent="1" vertex="1">
          <mxGeometry x="160" y="270" width="120" height="60" as="geometry" />
        </mxCell>
        <mxCell id="wNl4BhHVMznYK_FbZay_-42" style="edgeStyle=orthogonalEdgeStyle;rounded=0;orthogonalLoop=1;jettySize=auto;html=1;exitX=1;exitY=0.5;exitDx=0;exitDy=0;entryX=0;entryY=0.5;entryDx=0;entryDy=0;" parent="1" source="wNl4BhHVMznYK_FbZay_-28" target="wNl4BhHVMznYK_FbZay_-31" edge="1">
          <mxGeometry relative="1" as="geometry" />
        </mxCell>
        <mxCell id="wNl4BhHVMznYK_FbZay_-46" style="edgeStyle=orthogonalEdgeStyle;rounded=0;orthogonalLoop=1;jettySize=auto;html=1;exitX=0.5;exitY=1;exitDx=0;exitDy=0;entryX=0;entryY=0.5;entryDx=0;entryDy=0;" parent="1" source="wNl4BhHVMznYK_FbZay_-28" target="wNl4BhHVMznYK_FbZay_-32" edge="1">
          <mxGeometry relative="1" as="geometry" />
        </mxCell>
        <mxCell id="wNl4BhHVMznYK_FbZay_-28" value="&lt;b&gt;OSQP-Eigen&lt;/b&gt;" style="rounded=1;whiteSpace=wrap;html=1;fillColor=#f5f5f5;fontColor=#333333;strokeColor=#666666;" parent="1" vertex="1">
          <mxGeometry x="160" y="160" width="120" height="60" as="geometry" />
        </mxCell>
        <mxCell id="wNl4BhHVMznYK_FbZay_-36" style="edgeStyle=orthogonalEdgeStyle;rounded=0;orthogonalLoop=1;jettySize=auto;html=1;exitX=1;exitY=0.5;exitDx=0;exitDy=0;entryX=0;entryY=0.5;entryDx=0;entryDy=0;" parent="1" source="wNl4BhHVMznYK_FbZay_-29" target="wNl4BhHVMznYK_FbZay_-33" edge="1">
          <mxGeometry relative="1" as="geometry" />
        </mxCell>
        <mxCell id="wNl4BhHVMznYK_FbZay_-29" value="&lt;b&gt;vis&lt;/b&gt;" style="rounded=1;whiteSpace=wrap;html=1;fillColor=#f5f5f5;fontColor=#333333;strokeColor=#666666;" parent="1" vertex="1">
          <mxGeometry x="160" y="360" width="120" height="60" as="geometry" />
        </mxCell>
        <mxCell id="wNl4BhHVMznYK_FbZay_-30" value="nlohmann-json" style="rounded=1;whiteSpace=wrap;html=1;fillColor=#e1d5e7;strokeColor=#9673a6;" parent="1" vertex="1">
          <mxGeometry x="320" y="90" width="90" height="40" as="geometry" />
        </mxCell>
        <mxCell id="wNl4BhHVMznYK_FbZay_-31" value="Eigen" style="rounded=1;whiteSpace=wrap;html=1;fillColor=#e1d5e7;strokeColor=#9673a6;" parent="1" vertex="1">
          <mxGeometry x="320" y="170" width="90" height="40" as="geometry" />
        </mxCell>
        <mxCell id="wNl4BhHVMznYK_FbZay_-37" style="edgeStyle=orthogonalEdgeStyle;rounded=0;orthogonalLoop=1;jettySize=auto;html=1;exitX=1;exitY=0.5;exitDx=0;exitDy=0;entryX=0;entryY=0.5;entryDx=0;entryDy=0;" parent="1" source="wNl4BhHVMznYK_FbZay_-32" target="wNl4BhHVMznYK_FbZay_-34" edge="1">
          <mxGeometry relative="1" as="geometry" />
        </mxCell>
        <mxCell id="wNl4BhHVMznYK_FbZay_-32" value="osqp-eigen" style="rounded=1;whiteSpace=wrap;html=1;fillColor=#e1d5e7;strokeColor=#9673a6;" parent="1" vertex="1">
          <mxGeometry x="320" y="230" width="90" height="40" as="geometry" />
        </mxCell>
        <mxCell id="wNl4BhHVMznYK_FbZay_-33" value="matplotlib" style="rounded=1;whiteSpace=wrap;html=1;fillColor=#dae8fc;strokeColor=#6c8ebf;" parent="1" vertex="1">
          <mxGeometry x="320" y="370" width="90" height="40" as="geometry" />
        </mxCell>
        <mxCell id="wNl4BhHVMznYK_FbZay_-34" value="OSQP" style="rounded=1;whiteSpace=wrap;html=1;fillColor=#e1d5e7;strokeColor=#9673a6;" parent="1" vertex="1">
          <mxGeometry x="440" y="230" width="90" height="40" as="geometry" />
        </mxCell>
        <mxCell id="wNl4BhHVMznYK_FbZay_-43" value="" style="ellipse;whiteSpace=wrap;html=1;aspect=fixed;fillColor=#000000;" parent="1" vertex="1">
          <mxGeometry x="295" y="185" width="10" height="10" as="geometry" />
        </mxCell>
        <mxCell id="wNl4BhHVMznYK_FbZay_-47" value="" style="ellipse;whiteSpace=wrap;html=1;aspect=fixed;fillColor=#e1d5e7;strokeColor=#9673a6;" parent="1" vertex="1">
          <mxGeometry x="440" y="100" width="10" height="10" as="geometry" />
        </mxCell>
        <mxCell id="wNl4BhHVMznYK_FbZay_-48" value="" style="ellipse;whiteSpace=wrap;html=1;aspect=fixed;fillColor=#dae8fc;strokeColor=#6c8ebf;" parent="1" vertex="1">
          <mxGeometry x="440" y="130" width="10" height="10" as="geometry" />
        </mxCell>
        <mxCell id="wNl4BhHVMznYK_FbZay_-49" value="C++ package" style="text;html=1;strokeColor=none;fillColor=none;align=center;verticalAlign=middle;whiteSpace=wrap;rounded=0;" parent="1" vertex="1">
          <mxGeometry x="440" y="90" width="110" height="30" as="geometry" />
        </mxCell>
        <mxCell id="wNl4BhHVMznYK_FbZay_-50" value="Python package" style="text;html=1;strokeColor=none;fillColor=none;align=center;verticalAlign=middle;whiteSpace=wrap;rounded=0;" parent="1" vertex="1">
          <mxGeometry x="450" y="120" width="110" height="30" as="geometry" />
        </mxCell>
      </root>
    </mxGraphModel>
  </diagram>
</mxfile>
